<?xml version="1.0" encoding="UTF-8"?>
<svg xmlns="http://www.w3.org/2000/svg" xmlns:xlink="http://www.w3.org/1999/xlink" width="28px" height="28px" viewBox="0 0 28 28" version="1.1">
<g id="surface1">
<path style=" stroke:none;fill-rule:nonzero;fill:rgb(12.941176%,12.941176%,12.941176%);fill-opacity:1;" d="M 19.832031 3.503906 C 21.765625 3.503906 23.332031 5.066406 23.332031 7 C 23.332031 8.933594 21.765625 10.496094 19.832031 10.496094 C 18.851562 10.496094 17.960938 10.09375 17.328125 9.441406 L 10.960938 13.078125 C 11.039062 13.371094 11.082031 13.679688 11.082031 14 C 11.082031 14.320312 11.039062 14.628906 10.960938 14.921875 L 17.328125 18.558594 C 17.964844 17.90625 18.851562 17.503906 19.832031 17.503906 C 21.765625 17.503906 23.332031 19.066406 23.332031 21 C 23.332031 22.933594 21.765625 24.496094 19.832031 24.496094 C 17.902344 24.496094 16.335938 22.933594 16.335938 21 C 16.335938 20.679688 16.378906 20.371094 16.457031 20.078125 L 10.089844 16.441406 C 9.457031 17.09375 8.566406 17.496094 7.585938 17.496094 C 5.652344 17.496094 4.085938 15.933594 4.085938 14 C 4.085938 12.066406 5.652344 10.503906 7.585938 10.503906 C 8.566406 10.503906 9.457031 10.90625 10.089844 11.558594 L 16.457031 7.921875 C 16.378906 7.628906 16.335938 7.320312 16.335938 7 C 16.335938 5.066406 17.902344 3.503906 19.832031 3.503906 Z M 19.832031 3.503906 "/>
</g>
</svg>
